# xmcd CD database file
# Copyright (C) 1993-1998 Ti Kan
# 
# Track frame offsets:
#     180
#     15230
#     28389
#     40586
#     52896
#     67680
#     80798
#     92406
#     107668
#     121864
#     135995
#     150477
#     165033
#     179823
#     194306
#     207434
#     220845
#     233750
#     246751
#     260136
#     272510
#     285212
#     298518
#     314035
# 
# Disc length: 4383 seconds
# 
# Revision: 1
# Processed by: cddbd v1.4b41PL1 Copyright (c) Steve Scherf et al.
# Submitted via: DiscPlay 4.0.4
# 
DISCID=43111d18
DTITLE=Weldon, Casey Bill - The Hawaiian Guitar Wizard 1935/1938
DYEAR=1900
DGENRE=
TTITLE0=Somebody Changed The Lock On My Door
TTITLE1=My Stove Don't Work
TTITLE2=Arlena
TTITLE3=Caught Us Doing It
TTITLE4=W.P.A. Blues
TTITLE5=I Got A Letter This Morning
TTITLE6=Has My Gal Been Here
TTITLE7=Casey Blues
TTITLE8=You Just As Well Let Her Go
TTITLE9=Big Bill Blues
TTITLE10=The Big Boat
TTITLE11=Can't You Remember?
TTITLE12=We Gonna Move (To The Outskirts Of Town)
TTITLE13=Back Door Blues
TTITLE14=I've Been Tricked
TTITLE15=Guitar Swing
TTITLE16=Spider Blues
TTITLE17=You Shouldn't Do That
TTITLE18=Worried About That Woman
TTITLE19=Go Ahead, Buddy
TTITLE20=Christmas Time Blues
TTITLE21=New Round And Round
TTITLE22='Way Down In Louisiana
TTITLE23=I Believe You're Cheating On Me
EXTD=
EXTT0=
EXTT1=
EXTT2=
EXTT3=
EXTT4=
EXTT5=
EXTT6=
EXTT7=
EXTT8=
EXTT9=
EXTT10=
EXTT11=
EXTT12=
EXTT13=
EXTT14=
EXTT15=
EXTT16=
EXTT17=
EXTT18=
EXTT19=
EXTT20=
EXTT21=
EXTT22=
EXTT23=
PLAYORDER=
